<svg xmlns="http://www.w3.org/2000/svg" width="48" height="48" viewBox="0 0 48 48"><defs><style>.a{fill:#30544c;fill-rule:evenodd;}</style></defs><g transform="translate(-0.001)"><g transform="translate(-200 -160)"><path class="a" d="M225.638,208H202.65A2.65,2.65,0,0,1,200,205.35v-42.7a2.649,2.649,0,0,1,2.65-2.65h42.7A2.649,2.649,0,0,1,248,162.65v42.7a2.65,2.65,0,0,1-2.649,2.65H233.12V189.412h6.24l.934-7.244H233.12v-4.625c0-2.1.583-3.527,3.59-3.527l3.836,0v-6.479a51.39,51.39,0,0,0-5.59-.285c-5.53,0-9.317,3.376-9.317,9.575v5.343h-6.255v7.244h6.255V208Z"/></g></g></svg>