<svg xmlns="http://www.w3.org/2000/svg" width="52.809" height="52.809" viewBox="0 0 52.809 52.809"><defs><style>.a{fill:#30544c;}</style></defs><path class="a" d="M36.306,0H16.5A16.5,16.5,0,0,0,0,16.5v19.8a16.5,16.5,0,0,0,16.5,16.5h19.8a16.5,16.5,0,0,0,16.5-16.5V16.5A16.5,16.5,0,0,0,36.306,0ZM47.858,36.306A11.565,11.565,0,0,1,36.306,47.858H16.5A11.565,11.565,0,0,1,4.951,36.306V16.5A11.565,11.565,0,0,1,16.5,4.951h19.8A11.565,11.565,0,0,1,47.858,16.5Z"/><path class="a" d="M17.2,4A13.2,13.2,0,1,0,30.4,17.2,13.2,13.2,0,0,0,17.2,4Zm0,21.454A8.251,8.251,0,1,1,25.454,17.2,8.261,8.261,0,0,1,17.2,25.454Z" transform="translate(9.202 9.202)"/><circle class="a" cx="1.759" cy="1.759" r="1.759" transform="translate(38.838 10.453)"/></svg>