<svg xmlns="http://www.w3.org/2000/svg" width="52.809" height="52.809" viewBox="0 0 52.809 52.809"><defs><style>.a{fill:#30544c;}</style></defs><path class="a" d="M26.4,0a26.4,26.4,0,1,0,26.4,26.4A26.4,26.4,0,0,0,26.4,0Zm2.317,33.093a4.947,4.947,0,0,1-4.215-2.15s-1,3.975-1.213,4.743a18.429,18.429,0,0,1-3.114,5.646.229.229,0,0,1-.409-.1,19.364,19.364,0,0,1,.051-6.557l2.218-9.4a6.639,6.639,0,0,1-.55-2.73c0-2.558,1.482-4.466,3.327-4.466a2.309,2.309,0,0,1,2.327,2.589c0,1.578-1,3.936-1.523,6.121a2.671,2.671,0,0,0,2.723,3.324c3.268,0,5.469-4.2,5.469-9.174,0-3.781-2.546-6.611-7.179-6.611a8.171,8.171,0,0,0-8.494,8.263,4.971,4.971,0,0,0,1.139,3.383.838.838,0,0,1,.248.962c-.084.319-.272,1.081-.353,1.385a.594.594,0,0,1-.863.432c-2.409-.984-3.533-3.624-3.533-6.591,0-4.9,4.134-10.776,12.329-10.776,6.588,0,10.921,4.764,10.921,9.883C38.03,28.036,34.268,33.093,28.721,33.093Z"/></svg>